<svg width="22" height="22" viewBox="0 0 22 22" fill="none" xmlns="http://www.w3.org/2000/svg">
<path d="M17.4167 6.41669H4.58333C3.57081 6.41669 2.75 7.2375 2.75 8.25002V16.5C2.75 17.5125 3.57081 18.3334 4.58333 18.3334H17.4167C18.4292 18.3334 19.25 17.5125 19.25 16.5V8.25002C19.25 7.2375 18.4292 6.41669 17.4167 6.41669Z" stroke="#64748B" stroke-width="1.5" stroke-linecap="round" stroke-linejoin="round"/>
<path d="M7.33334 6.41667V4.58333C7.33334 4.0971 7.5265 3.63079 7.87031 3.28697C8.21413 2.94315 8.68045 2.75 9.16668 2.75H12.8333C13.3196 2.75 13.7859 2.94315 14.1297 3.28697C14.4735 3.63079 14.6667 4.0971 14.6667 4.58333V6.41667" stroke="#64748B" stroke-width="1.5" stroke-linecap="round" stroke-linejoin="round"/>
<path d="M11 11V11.0092" stroke="#64748B" stroke-width="2" stroke-linecap="round" stroke-linejoin="round"/>
<path d="M2.75 11.9167C5.30895 13.2061 8.13453 13.8778 11 13.8778C13.8655 13.8778 16.6911 13.2061 19.25 11.9167" stroke="#64748B" stroke-width="1.5" stroke-linecap="round" stroke-linejoin="round"/>
</svg>
