<svg width="32" height="20" viewBox="0 0 32 20" fill="none" xmlns="http://www.w3.org/2000/svg">
<path d="M7.18588 10.8333C7.89162 10.8333 8.46373 10.4602 8.46373 10C8.46373 9.53976 7.89162 9.16666 7.18588 9.16666C6.48014 9.16666 5.90802 9.53976 5.90802 10C5.90802 10.4602 6.48014 10.8333 7.18588 10.8333Z" stroke="#64748B" stroke-width="2" stroke-linecap="round" stroke-linejoin="round"/>
<path d="M16.1309 10.8333C16.8366 10.8333 17.4087 10.4602 17.4087 10C17.4087 9.53976 16.8366 9.16666 16.1309 9.16666C15.4251 9.16666 14.853 9.53976 14.853 10C14.853 10.4602 15.4251 10.8333 16.1309 10.8333Z" stroke="#64748B" stroke-width="2" stroke-linecap="round" stroke-linejoin="round"/>
<path d="M25.0759 10.8333C25.7816 10.8333 26.3537 10.4602 26.3537 10C26.3537 9.53976 25.7816 9.16666 25.0759 9.16666C24.3702 9.16666 23.798 9.53976 23.798 10C23.798 10.4602 24.3702 10.8333 25.0759 10.8333Z" stroke="#64748B" stroke-width="2" stroke-linecap="round" stroke-linejoin="round"/>
</svg>
