<svg width="28" height="29" viewBox="0 0 28 29" fill="none" xmlns="http://www.w3.org/2000/svg">
<path fill-rule="evenodd" clip-rule="evenodd" d="M0.529798 4.87654C0 6.15559 0 7.77706 0 11.02V17.98C0 21.223 0 22.8444 0.529798 24.1235C1.2362 25.8289 2.59113 27.1838 4.29652 27.8902C5.57557 28.42 7.19704 28.42 10.44 28.42H17.4C20.643 28.42 22.2644 28.42 23.5435 27.8902C25.2489 27.1838 26.6038 25.8289 27.3102 24.1235C27.84 22.8444 27.84 21.223 27.84 17.98V11.02C27.84 7.77706 27.84 6.15559 27.3102 4.87654C26.6038 3.17114 25.2489 1.81621 23.5435 1.10982C22.2644 0.580017 20.643 0.580017 17.4 0.580017H10.44C7.19705 0.580017 5.57557 0.580017 4.29652 1.10982C2.59113 1.81621 1.2362 3.17114 0.529798 4.87654ZM16.0554 8.2023C16.0852 8.094 15.9591 8.01071 15.8713 8.08072L8.10189 14.2711C8.02774 14.3301 8.05193 14.4484 8.14332 14.4736L12.2847 15.6164C12.3465 15.6334 12.3828 15.6973 12.3657 15.759L11.0515 20.5217C11.0217 20.63 11.1478 20.7133 11.2356 20.6432L19.005 14.4529C19.0792 14.3938 19.055 14.2756 18.9636 14.2504L14.8221 13.1076C14.7604 13.0906 14.7241 13.0267 14.7412 12.9649L16.0554 8.2023Z" fill="#2563EB"/>
</svg>
