<svg width="22" height="22" viewBox="0 0 22 22" fill="none" xmlns="http://www.w3.org/2000/svg">
<path d="M11 7.33334V11L12.8333 12.8333" stroke="#64748B" stroke-width="1.5" stroke-linecap="round" stroke-linejoin="round"/>
<path d="M2.79584 10.0833C3.00125 8.06672 3.94191 6.19631 5.43834 4.82897C6.93477 3.46163 8.88222 2.69306 10.9091 2.66991C12.9361 2.64676 14.9006 3.37064 16.4278 4.70345C17.9551 6.03626 18.9382 7.88469 19.1897 9.89609C19.4411 11.9075 18.9432 13.941 17.791 15.6088C16.6388 17.2765 14.9129 18.4617 12.9427 18.9382C10.9724 19.4147 8.89571 19.1491 7.10875 18.1922C5.32179 17.2353 2.79584 13.75 2.79584 13.75M2.79584 18.3333V13.75M2.79584 13.75H7.37917" stroke="#64748B" stroke-width="1.5" stroke-linecap="round" stroke-linejoin="round"/>
</svg>
