<svg width="22" height="22" viewBox="0 0 22 22" fill="none" xmlns="http://www.w3.org/2000/svg">
<path d="M8.24999 3.66669H4.58332C4.07706 3.66669 3.66666 4.07709 3.66666 4.58335V8.25002C3.66666 8.75628 4.07706 9.16669 4.58332 9.16669H8.24999C8.75625 9.16669 9.16666 8.75628 9.16666 8.25002V4.58335C9.16666 4.07709 8.75625 3.66669 8.24999 3.66669Z" stroke="#2563EB" stroke-width="2" stroke-linecap="round" stroke-linejoin="round"/>
<path d="M17.4167 3.66669H13.75C13.2437 3.66669 12.8333 4.07709 12.8333 4.58335V8.25002C12.8333 8.75628 13.2437 9.16669 13.75 9.16669H17.4167C17.9229 9.16669 18.3333 8.75628 18.3333 8.25002V4.58335C18.3333 4.07709 17.9229 3.66669 17.4167 3.66669Z" stroke="#2563EB" stroke-width="2" stroke-linecap="round" stroke-linejoin="round"/>
<path d="M8.24999 12.8334H4.58332C4.07706 12.8334 3.66666 13.2438 3.66666 13.75V17.4167C3.66666 17.9229 4.07706 18.3334 4.58332 18.3334H8.24999C8.75625 18.3334 9.16666 17.9229 9.16666 17.4167V13.75C9.16666 13.2438 8.75625 12.8334 8.24999 12.8334Z" stroke="#2563EB" stroke-width="2" stroke-linecap="round" stroke-linejoin="round"/>
<path d="M17.4167 12.8334H13.75C13.2437 12.8334 12.8333 13.2438 12.8333 13.75V17.4167C12.8333 17.9229 13.2437 18.3334 13.75 18.3334H17.4167C17.9229 18.3334 18.3333 17.9229 18.3333 17.4167V13.75C18.3333 13.2438 17.9229 12.8334 17.4167 12.8334Z" stroke="#2563EB" stroke-width="2" stroke-linecap="round" stroke-linejoin="round"/>
</svg>
